<svg width="210mm" height="210mm" viewBox="0 0 210 210" xmlns="http://www.w3.org/2000/svg"><path style="fill:#67c04d;stroke-width:1.83544;fill-opacity:1" fill="none" d="M0 0h210v210H0z"/><path d="M143.505 44.335c0-4.022-1.27-7.197-3.598-9.737-2.54-2.328-5.715-3.598-9.737-3.598s-7.197 1.27-9.525 3.598c-2.54 2.54-3.81 5.715-3.81 9.525v82.339c0 5.08-.635 9.313-2.117 12.7-1.481 3.598-3.598 6.35-5.926 8.255-2.54 2.117-5.292 3.598-8.255 4.445-3.175.847-6.139 1.27-9.314 1.27-6.773 0-12.065-1.482-15.875-4.657-4.021-3.175-7.408-7.62-10.16-13.546-2.963-6.139-6.773-9.314-11.218-9.314-1.482 0-2.963.212-4.445.635-1.693.635-3.175 1.27-4.657 2.328-1.481 1.059-2.54 2.54-3.386 4.234-1.059 1.693-1.482 3.81-1.482 6.138 0 1.27.212 2.964.847 5.292s1.481 4.657 2.963 7.197c1.905 3.386 4.022 6.773 6.773 9.948 2.54 3.387 5.715 6.35 9.525 8.89 3.81 2.752 8.255 4.868 13.335 6.35 4.869 1.693 10.795 2.54 17.569 2.54 6.773 0 13.335-1.058 19.685-3.175 6.138-1.905 11.853-5.08 16.721-9.525 4.869-4.445 8.679-9.948 11.642-16.51 2.963-6.562 4.445-14.605 4.445-23.707V44.335z" aria-label="J" style="font-size:211.667px;line-height:1.25;font-family:'My Font';-inkscape-font-specification:'My Font, Normal';fill:#fff;stroke-width:.264583"/></svg>