<?xml version="1.0" encoding="utf-8"?>
<!-- Generator: Adobe Illustrator 15.1.0, SVG Export Plug-In . SVG Version: 6.00 Build 0)  -->
<!DOCTYPE svg PUBLIC "-//W3C//DTD SVG 1.1//EN" "http://www.w3.org/Graphics/SVG/1.1/DTD/svg11.dtd">
<svg version="1.1" id="Ebene_1" xmlns="http://www.w3.org/2000/svg" xmlns:xlink="http://www.w3.org/1999/xlink" x="0px" y="0px"
	 width="708.66px" height="175px" viewBox="0 19.8 708.66 175" enable-background="new 0 19.8 708.66 175" xml:space="preserve">
<g id="Ebene_2">
</g>
<g id="Ebene_1_1_">
	<g>
		<path fill="#00786A" d="M233.707,88.239V48.535h5.719l14.903,34.59l15.232-34.59h5.444V88.24h-3.575V51.56h-0.11l-15.178,36.68
			h-3.575L237.39,51.725h-0.11V88.24L233.707,88.239L233.707,88.239z"/>
		<path fill="#00786A" d="M300.309,68.772c-0.33-4.51-2.64-5.939-6.544-5.939c-3.464,0-6.324,1.045-6.764,4.785h-3.521
			c0.825-5.665,5.061-7.809,10.339-7.809c6.104,0,9.898,2.805,9.789,9.129v13.088c-0.055,2.145,0.165,4.345,0.275,6.214h-3.41
			l-0.11-4.069h-0.109l-0.165,0.386c-1.21,2.31-4.896,4.509-8.634,4.509c-5.114,0-9.185-3.134-9.185-8.523
			c0-3.739,2.255-6.6,5.556-7.974c3.685-1.595,8.469-1.045,12.482-1.265V68.772z M292.06,86.04c7.204,0,8.579-5.938,8.249-11.713
			c-4.675,0.165-14.463-0.715-14.463,6.214C285.846,84.28,288.706,86.04,292.06,86.04z"/>
		<path fill="#00786A" d="M330.008,60.633h3.465l-9.897,13.363l10.777,14.243h-4.345l-8.854-11.988l-8.688,11.988h-3.739l0.11-0.11
			l10.559-14.022l-10.174-13.474h4.399l8.084,11.109L330.008,60.633z"/>
		<path fill="#00786A" d="M331.616,71.906h13.857v3.3h-13.857V71.906z"/>
		<path fill="#00786A" d="M351.69,88.239V48.535h9.955c7.644-0.165,16.224,1.76,16.224,11.218c0,9.459-8.58,11.385-16.224,11.22
			h-6.379V88.24L351.69,88.239L351.69,88.239z M355.266,67.672h8.688c5.334,0,10.063-1.705,10.063-7.919s-4.729-7.919-10.063-7.919
			h-8.688V67.672z"/>
		<path fill="#00786A" d="M387.549,88.239h-3.299V48.535h3.299V88.239z"/>
		<path fill="#00786A" d="M412.021,68.772c-0.33-4.51-2.639-5.939-6.543-5.939c-3.465,0-6.324,1.045-6.766,4.785h-3.521
			c0.826-5.665,5.062-7.809,10.34-7.809c6.104,0,9.898,2.805,9.789,9.129v13.088c-0.057,2.145,0.164,4.345,0.273,6.214h-3.408
			l-0.111-4.069h-0.108l-0.164,0.386c-1.211,2.31-4.896,4.509-8.635,4.509c-5.115,0-9.185-3.134-9.185-8.523
			c0-3.739,2.254-6.6,5.555-7.974c3.685-1.595,8.47-1.045,12.482-1.265L412.021,68.772L412.021,68.772z M403.773,86.04
			c7.203,0,8.578-5.938,8.248-11.713c-4.674,0.165-14.463-0.715-14.463,6.214C397.559,84.28,400.418,86.04,403.773,86.04z"/>
		<path fill="#00786A" d="M427.202,88.239h-3.299V66.847c0-2.146-0.166-4.346-0.274-6.215h3.409l0.164,4.07l0.109,0.11
			c1.926-3.41,5.061-5.004,8.635-5.004c9.021,0,9.734,7.974,9.734,11.164v17.268h-3.301v-17.82c0-4.783-2.75-7.589-7.259-7.589
			c-5.444,0-7.92,4.564-7.92,9.515L427.202,88.239L427.202,88.239z"/>
		<path fill="#00786A" d="M471.915,69.102c-0.272-4.235-2.969-6.271-7.532-6.271c-5.06,0-8.193,5.279-8.193,11.549
			c0,6.324,3.135,11.658,8.193,11.658c4.289,0,7.26-2.64,7.532-6.434h3.574c-0.879,6.324-4.508,9.458-10.776,9.458
			c-8.25,0-12.101-7.094-12.101-14.628c0-7.479,4.125-14.628,12.318-14.628c5.666,0,10.285,3.409,10.559,9.294L471.915,69.102
			L471.915,69.102z"/>
		<path fill="#00786A" d="M482.875,71.906l13.362-11.273h4.234l-13.969,11.935l15.067,15.673h-4.18l-14.519-14.958V88.24h-3.301
			V48.535h3.301v23.371H482.875z"/>
		<path fill="#00786A" d="M503.061,71.906h13.857v3.3h-13.857V71.906z"/>
		<path fill="#00786A" d="M523.52,88.239V48.37h3.574v39.87L523.52,88.239L523.52,88.239z"/>
		<path fill="#00786A" d="M540.625,88.239h-3.302V66.847c0-2.146-0.164-4.346-0.274-6.215h3.409l0.166,4.07l0.109,0.11
			c1.924-3.41,5.06-5.004,8.633-5.004c9.021,0,9.734,7.974,9.734,11.164v17.268h-3.299v-17.82c0-4.783-2.75-7.589-7.261-7.589
			c-5.442,0-7.918,4.564-7.918,9.515v15.893H540.625z"/>
		<path fill="#00786A" d="M577.088,59.808c5.225,0,9.625,1.813,10.063,7.644h-3.574c-0.329-3.465-3.409-4.62-6.819-4.62
			c-3.078,0-6.213,1.21-6.213,4.455c0,4.069,5.334,3.686,12.813,6.324c2.859,0.99,4.674,3.464,4.674,6.434
			c0,6.214-5.772,9.02-11.604,9.02c-4.783,0-10.283-2.254-10.394-8.359h3.574c0.275,4.125,3.904,5.334,7.646,5.334
			c3.52,0,7.203-1.649,7.203-5.499c0-3.96-4.345-4.62-8.744-5.608c-4.345-1.045-8.742-2.311-8.742-7.425
			C566.971,61.788,572.25,59.808,577.088,59.808z"/>
		<path fill="#00786A" d="M597.77,63.658h-5.5v-3.025h5.5v-5.884l3.299-1.43v7.313h6.271v3.025h-6.271v18.479
			c-0.055,2.528,1.267,3.903,3.795,3.903c0.99,0,1.98-0.055,2.859-0.33v2.86c-1.045,0.275-2.254,0.495-3.354,0.495
			c-6.983,0-6.6-4.454-6.6-8.194L597.77,63.658L597.77,63.658z"/>
		<path fill="#00786A" d="M617.35,52.659h-3.85v-4.125h3.85V52.659z M617.073,60.633v27.606h-3.301V60.633H617.073z"/>
		<path fill="#00786A" d="M628.293,63.658h-5.5v-3.025h5.5v-5.884l3.299-1.43v7.313h6.27v3.025h-6.27v18.479
			c-0.056,2.528,1.266,3.903,3.795,3.903c0.99,0,1.979-0.055,2.858-0.33v2.86c-1.045,0.275-2.254,0.495-3.354,0.495
			c-6.984,0-6.6-4.454-6.6-8.194L628.293,63.658L628.293,63.658z"/>
		<path fill="#00786A" d="M661.35,60.633h3.301v21.393c0,2.145,0.164,4.345,0.273,6.214h-3.408l-0.166-4.069l-0.109-0.109
			c-1.926,3.409-5.059,5.004-8.635,5.004c-9.018,0-9.732-7.975-9.732-11.163V60.633h3.3v17.818c0,4.784,2.75,7.589,7.26,7.589
			c5.442,0,7.918-4.563,7.918-9.514L661.35,60.633L661.35,60.633z"/>
		<path fill="#00786A" d="M675.816,63.658h-5.498v-3.025h5.498v-5.884l3.301-1.43v7.313h6.271v3.025h-6.271v18.479
			c-0.055,2.528,1.265,3.903,3.795,3.903c0.988,0,1.979-0.055,2.859-0.33v2.86c-1.045,0.275-2.256,0.495-3.354,0.495
			c-6.984,0-6.601-4.454-6.601-8.194V63.658L675.816,63.658z"/>
		<path fill="#00786A" d="M239.427,158.239v-24.581h-5.554v-3.025h5.554v-5.885c0-4.729,1.925-6.873,6.654-6.873
			c1.045,0,2.145,0.386,3.135,0.604v2.64c-0.66-0.108-1.375-0.22-2.035-0.22c-4.509,0-4.62,2.255-4.455,6.214v3.52h6.271v3.025
			h-6.271v24.581H239.427L239.427,158.239z"/>
		<path fill="#00786A" d="M273.854,130.633h3.3v21.394c0,2.145,0.165,4.344,0.275,6.214h-3.41l-0.165-4.069l-0.109-0.108
			c-1.926,3.408-5.061,5.004-8.635,5.004c-9.019,0-9.733-7.976-9.733-11.164v-17.269h3.3v17.818c0,4.783,2.75,7.588,7.259,7.588
			c5.444,0,7.919-4.563,7.919-9.514V130.633z M259.446,124.199v-4.84h4.069v4.84H259.446L259.446,124.199z M269.015,124.199v-4.84
			h4.069v4.84H269.015L269.015,124.199z"/>
		<path fill="#00786A" d="M289.256,158.239h-3.3v-21.392c0.055-2.146-0.165-4.347-0.275-6.216h3.41l0.165,4.07h0.11
			c0.989-2.805,3.464-4.785,6.214-4.895c1.1-0.057,2.199,0,3.3,0.055v3.188c-0.66-0.055-1.375-0.221-2.035-0.221
			c-4.895,0-7.479,3.521-7.589,8.799V158.239z"/>
		<path fill="#00786A" d="M320.496,158.239v-39.704h5.72l14.903,34.59l15.232-34.59h5.443v39.704h-3.574v-36.681h-0.109
			l-15.178,36.681h-3.574l-15.179-36.515h-0.109v36.515H320.496z"/>
		<path fill="#00786A" d="M373.404,145.206c0.111,5.884,2.806,10.833,9.568,10.833c3.906,0,7.15-2.805,7.975-6.599h3.466
			c-1.705,6.599-5.83,9.624-12.484,9.624c-8.248,0-12.098-7.094-12.098-14.629c0-7.479,4.125-14.627,12.317-14.627
			c9.238,0,12.595,6.764,12.595,15.396L373.404,145.206L373.404,145.206z M391.168,142.182c-0.385-5.334-3.246-9.351-8.965-9.351
			c-5.39,0-8.248,4.51-8.688,9.351H391.168z"/>
		<path fill="#00786A" d="M404.424,133.658h-5.498v-3.025h5.498v-5.885l3.301-1.43v7.313h6.27v3.025h-6.27v18.477
			c-0.055,2.529,1.264,3.904,3.795,3.904c0.988,0,1.979-0.055,2.859-0.33v2.86c-1.045,0.273-2.257,0.495-3.355,0.495
			c-6.984,0-6.6-4.455-6.6-8.194V133.658z"/>
		<path fill="#00786A" d="M422.299,145.206c0.11,5.884,2.805,10.833,9.567,10.833c3.906,0,7.15-2.805,7.976-6.599h3.465
			c-1.705,6.599-5.83,9.624-12.484,9.624c-8.248,0-12.098-7.094-12.098-14.629c0-7.479,4.125-14.627,12.318-14.627
			c9.237,0,12.594,6.764,12.594,15.396L422.299,145.206L422.299,145.206z M440.063,142.182c-0.385-5.334-3.246-9.351-8.965-9.351
			c-5.389,0-8.248,4.51-8.688,9.351H440.063z"/>
		<path fill="#00786A" d="M474.711,144.436c0,7.26-4.068,14.629-12.867,14.629s-12.869-7.369-12.869-14.629
			c0-7.258,4.07-14.627,12.869-14.627S474.711,137.178,474.711,144.436z M461.844,132.832c-6.654,0-9.295,6.49-9.295,11.604
			c0,5.115,2.641,11.604,9.295,11.604c6.653,0,9.293-6.487,9.293-11.604C471.137,139.322,468.497,132.832,461.844,132.832z"/>
		<path fill="#00786A" d="M484.834,158.239h-3.3v-21.392c0.056-2.146-0.166-4.347-0.274-6.216h3.41l0.164,4.07h0.108
			c0.99-2.805,3.465-4.785,6.215-4.895c1.101-0.057,2.199,0,3.3,0.055v3.188c-0.658-0.055-1.373-0.221-2.033-0.221
			c-4.896,0-7.48,3.521-7.59,8.799V158.239L484.834,158.239z"/>
		<path fill="#00786A" d="M523.605,144.436c0,7.26-4.068,14.629-12.867,14.629s-12.869-7.369-12.869-14.629
			c0-7.258,4.07-14.627,12.869-14.627S523.605,137.178,523.605,144.436z M510.738,132.832c-6.653,0-9.295,6.49-9.295,11.604
			c0,5.115,2.642,11.604,9.295,11.604c6.654,0,9.293-6.487,9.293-11.604C520.031,139.322,517.393,132.832,510.738,132.832z"/>
		<path fill="#00786A" d="M533.782,158.239h-3.299v-39.704h3.299V158.239z"/>
		<path fill="#00786A" d="M566.395,144.436c0,7.26-4.068,14.629-12.867,14.629s-12.869-7.369-12.869-14.629
			c0-7.258,4.07-14.627,12.869-14.627S566.395,137.178,566.395,144.436z M553.527,132.832c-6.654,0-9.295,6.49-9.295,11.604
			c0,5.115,2.641,11.604,9.295,11.604s9.293-6.487,9.293-11.604C562.82,139.322,560.182,132.832,553.527,132.832z"/>
		<path fill="#00786A" d="M592.409,130.633h3.41c-0.108,1.869-0.274,4.07-0.274,6.216V153.4c0,5.498,0.274,11.272-5.828,14.133
			c-2.201,1.045-3.687,1.265-6.271,1.265c-5.004,0-10.942-1.703-10.942-7.424h3.573c0.386,3.3,4.289,4.399,7.81,4.399
			c4.289,0,8.25-3.025,8.358-7.646v-5.169h-0.108c-1.597,3.245-5.392,5.169-8.965,5.169c-8.306,0-11.88-6.323-11.88-13.912
			c0-7.479,3.355-14.407,11.771-14.407c4.014,0,6.873,1.924,9.074,5.112l0.108-0.219L592.409,130.633z M583.393,132.832
			c-5.994,0-8.525,6.05-8.525,11.109c0,5.059,2.586,11.163,8.636,11.163c6.323,0,8.743-5.884,8.743-11.273
			C592.245,138.552,589.331,132.832,583.393,132.832z"/>
		<path fill="#00786A" d="M607.428,122.659h-3.851v-4.124h3.851V122.659z M607.152,130.633v27.606h-3.299v-27.606H607.152z"/>
		<path fill="#00786A" d="M617.932,145.206c0.111,5.884,2.805,10.833,9.568,10.833c3.905,0,7.149-2.805,7.975-6.599h3.465
			c-1.705,6.599-5.83,9.624-12.484,9.624c-8.248,0-12.098-7.094-12.098-14.629c0-7.479,4.125-14.627,12.318-14.627
			c9.237,0,12.594,6.764,12.594,15.396L617.932,145.206L617.932,145.206z M635.695,142.182c-0.385-5.334-3.246-9.351-8.965-9.351
			c-5.389,0-8.248,4.51-8.688,9.351H635.695z"/>
	</g>
	<g>
		<g>
			<path fill="#7BB6AF" d="M168.968,103.841c0,38.4-31.131,69.531-69.528,69.531c-38.398,0-69.527-31.131-69.527-69.531H168.968z"/>
			<path fill="#00786A" d="M21.487,104.104c0.002-42.979,34.964-77.938,77.955-77.94l0,0c42.981,0.002,77.949,34.959,77.951,77.94
				l0,0c-0.002,42.997-34.969,77.957-77.951,77.96l0,0C56.451,182.062,21.489,147.102,21.487,104.104L21.487,104.104z
				 M46.424,157.126c13.588,13.585,32.333,21.994,53.018,21.994l0,0c20.681,0,39.424-8.409,53.013-21.994l0,0
				c13.584-13.587,21.995-32.333,21.995-53.021l0,0c0-20.679-8.409-39.419-21.995-53.005l0,0
				c-13.589-13.584-32.333-21.991-53.013-21.991l0,0c-20.685,0-39.429,8.407-53.018,21.991l0,0
				C32.84,64.686,24.431,83.425,24.431,104.104l0,0C24.431,124.793,32.84,143.539,46.424,157.126L46.424,157.126z"/>
			<g>
				<path fill="#BFD9D6" d="M141.11,62.446l17.163-17.164H99.441v58.832l20.736-20.736l0.064-0.063
					c5.323,5.322,8.615,12.677,8.615,20.799c0,16.247-13.17,29.417-29.417,29.417l0.001,29.413c32.492,0,58.832-26.338,58.832-58.83
					c0-16.246-6.585-30.955-17.23-41.601L141.11,62.446z"/>
				<path fill="#FFFFFF" d="M78.686,124.87l20.756-20.756v58.83H40.609l17.054-17.052l0.039-0.319
					c-10.564-10.634-17.092-25.284-17.092-41.459c0-32.492,26.342-58.832,58.832-58.832L99.44,74.698
					c-16.246,0-29.416,13.17-29.416,29.416c0,8.123,3.292,15.477,8.616,20.801L78.686,124.87z"/>
				<path fill="#00786A" d="M161.824,43.81L97.97,43.833c-32.624,0.786-58.831,27.47-58.833,60.281
					c0,16.12,6.329,30.772,16.635,41.587l-18.716,18.714l63.857,0.021c32.623-0.783,58.831-27.509,58.832-60.321
					c0-16.12-6.328-30.771-16.634-41.588L161.824,43.81z M97.97,103.504l-19.302,19.303c-4.459-4.953-7.17-11.501-7.172-18.691
					C71.522,89.174,83.221,77,97.97,76.211V103.504z M44.163,161.473l14.896-14.898l0.103-0.822l0.083-0.711l-0.5-0.506
					c-10.305-10.373-16.663-24.646-16.665-40.421c0.001-15.845,6.419-30.175,16.8-40.561c10.063-10.06,23.829-16.396,39.088-16.78
					L97.967,73.26c-16.376,0.771-29.414,14.288-29.416,30.854c0,8.524,3.459,16.258,9.047,21.842l1.042,1.039l19.329-19.328v24.391
					h-0.002l0.002,29.416L44.163,161.473L44.163,161.473z M100.913,104.721l19.301-19.3c4.46,4.953,7.171,11.5,7.171,18.692
					c-0.027,14.938-11.725,27.113-26.472,27.901V104.721z M156.8,104.114c0,15.843-6.417,30.173-16.799,40.559
					c-10.063,10.063-23.83,16.397-39.088,16.782v-26.49c16.376-0.768,29.415-14.283,29.415-30.851
					c0.002-8.526-3.458-16.258-9.046-21.841l-1.042-1.04l-1.104,1.104l-18.223,18.225V46.753h53.808l-14.646,14.646l-0.067,0.065
					l-1.055,1.042l1.049,1.048C150.383,73.939,156.8,88.27,156.8,104.114z"/>
			</g>
		</g>
	</g>
	<polygon fill="#00786A" points="204.37,181.933 204.37,26.027 207.205,26.027 207.205,181.933 	"/>
</g>
</svg>
