<?xml version="1.0" encoding="UTF-8"?>
<svg width="245px" height="63px" viewBox="0 0 245 63" version="1.1" xmlns="http://www.w3.org/2000/svg" xmlns:xlink="http://www.w3.org/1999/xlink">
    <!-- Generator: Sketch 47.1 (45422) - http://www.bohemiancoding.com/sketch -->
    <title>CAMS</title>
    <desc>Created with Sketch.</desc>
    <defs>
        <polygon id="path-1" points="0.0188297872 61.8920508 0.0188297872 0.0635736041 29.4641719 0.0635736041 58.909514 0.0635736041 58.909514 61.8920508"></polygon>
    </defs>
    <g id="Page-1" stroke="none" stroke-width="1" fill="none" fill-rule="evenodd">
        <g id="CAMS">
            <g id="Group-3">
                <mask id="mask-2" fill="white">
                    <use xlink:href="#path-1"></use>
                </mask>
                <g id="Clip-2"></g>
                <path d="M0,30.9767107 C0,48.0503147 13.6676011,61.8920508 30.5249681,61.8920508 C35.4009415,61.8920508 39.9433138,60.7596853 44.0331436,58.6985787 C44.0331436,58.6985787 44.1097181,58.6579797 44.0686064,58.5805584 C44.0331436,58.5094315 43.956883,58.5475127 43.956883,58.5475127 C40.8179574,59.7988426 37.4640585,60.4572386 33.8870266,60.4572386 C18.5385532,60.4572386 6.09928191,47.8186802 6.09928191,32.2236345 C6.09928191,16.6289036 18.5385532,3.98719797 33.8870266,3.98719797 C44.7784894,3.98719797 54.2002872,10.3004975 58.7564681,19.5709137 C58.7564681,19.5709137 58.7969521,19.656203 58.863484,19.6300812 C58.9384894,19.6014416 58.8992606,19.5199289 58.8992606,19.5199289 C54.4183989,8.08926904 43.4076809,0.0635736041 30.5249681,0.0635736041 C13.6676011,0.0635736041 0,13.9027919 0,30.9767107" id="Fill-1" fill="#55BFD0" mask="url(#mask-2)"></path>
            </g>
            <path d="M57.8196487,26.0957056 C57.0021408,24.8802538 55.6632327,23.201533 53.6722609,21.4567208 C51.6888094,19.7144264 49.0363738,17.9195736 45.7804426,16.5741421 C42.5335982,15.224934 38.6798115,14.3541015 34.6048056,14.3575635 C30.5288597,14.3541015 26.675073,15.224934 23.4288553,16.5741421 C20.1726107,17.9195736 17.5195484,19.7144264 15.5367236,21.4567208 C13.5454385,23.201533 12.2062171,24.8802538 11.3887092,26.0957056 C10.5740214,27.3187107 10.2631866,28.0778173 10.3904032,28.1665685 C10.5292135,28.264132 11.0910348,27.6878782 12.0937275,26.6801421 C13.101747,25.6777563 14.5659917,24.2448325 16.577644,22.7577766 C18.5839694,21.2729239 21.1511761,19.7421218 24.2191025,18.6 C27.279822,17.4528426 30.8428279,16.7157665 34.6048056,16.718599 C38.3658433,16.7157665 41.9291625,17.4528426 44.9895687,18.6 C48.0571817,19.7421218 50.6250151,21.2729239 52.6313406,22.7577766 C54.6429928,24.2454619 56.1078642,25.6777563 57.115257,26.6801421 C58.1179498,27.6878782 58.6800844,28.264132 58.8185813,28.167198 C58.9451712,28.0778173 58.6349632,27.3187107 57.8196487,26.0957056" id="Fill-4" fill="#55BFD0"></path>
            <path d="M33.5880125,24.7058985 C28.61497,25.536132 21.6885567,29.0559695 21.6885567,44.3013604 C21.6885567,44.3013604 24.5556312,32.1864975 28.2464804,28.7443959 C31.9382697,25.3007208 35.8591115,25.4341624 35.8591115,25.4341624" id="Fill-5" fill="#55BFD0"></path>
            <path d="M35.3715522,24.7058985 C40.3452214,25.536132 47.2713213,29.0559695 47.2713213,44.3013604 C47.2713213,44.3013604 44.4045602,32.1864975 40.7130843,28.7443959 C37.0219217,25.3007208 33.1010799,25.4341624 33.1010799,25.4341624" id="Fill-6" fill="#55BFD0"></path>
            <path d="M34.606999,24.0437259 C34.606999,24.0437259 31.4431901,30.7960609 31.4431901,43.7046497 C31.4431901,43.7046497 33.9499219,28.735269 37.1109107,24.7062132" id="Fill-7" fill="#55BFD0"></path>
            <path d="M17.4994946,31.838731 C14.9686355,35.3003452 13.4718033,39.5720508 13.4718033,44.198132 C13.4718033,44.7463756 13.4987507,45.2873807 13.5397984,45.8252386 C13.9173749,40.9162234 15.9841752,36.4849543 19.1529975,33.110203 C18.5103342,32.7095635 17.9554064,32.2850051 17.4994946,31.838731" id="Fill-8" fill="#55BFD0"></path>
            <path d="M55.0346697,45.8252386 C55.0766574,45.2880102 55.1029781,44.7463756 55.1029781,44.1975025 C55.1029781,40.2776548 54.0272768,36.6108426 52.1594483,33.4762234 C51.6380481,33.7645076 51.0693333,34.0392589 50.4586308,34.2960711 C53.0399378,37.4936345 54.7003343,41.4726497 55.0346697,45.8252386" id="Fill-9" fill="#55BFD0"></path>
            <path d="M34.287704,26.5451269 C40.2324185,26.5451269 45.5886776,29.0515635 49.3797961,33.0661421 C50.0885745,32.8083858 50.7475316,32.530802 51.3569808,32.2371675 C47.594063,26.8296345 41.3548076,23.2896548 34.287704,23.2896548 C27.84509,23.2896548 22.0868138,26.2307208 18.2687479,30.8473604 C18.8255557,31.2747513 19.477306,31.6788528 20.2124051,32.056203 C23.9173546,28.6355025 28.858123,26.5451269 34.287704,26.5451269" id="Fill-10" fill="#55BFD0"></path>
            <path d="M35.966901,35.1319695 C29.5593812,35.1319695 23.8596998,33.9278477 20.2124051,32.056203 C19.8470489,32.3945279 19.4945398,32.7476447 19.1529975,33.1108325 C22.6934429,35.320802 28.898544,36.787401 35.966901,36.787401 C41.6775493,36.787401 46.823243,35.8297056 50.4586308,34.2967005 C50.1158352,33.871198 49.7554925,33.4620609 49.3797961,33.0661421 C45.8384108,34.3489442 41.1323352,35.1319695 35.966901,35.1319695" id="Fill-11" fill="#55BFD0"></path>
            <path d="M49.3797961,33.0655127 C49.7554925,33.4620609 50.1158352,33.871198 50.4586308,34.2960711 C51.0693333,34.0392589 51.6380481,33.7645076 52.1594483,33.4762234 C51.9059551,33.0532386 51.6367947,32.6400102 51.3569808,32.2365381 C50.7475316,32.530802 50.0888878,32.8090152 49.3797961,33.0655127" id="Fill-12" fill="#55BFD0"></path>
            <path d="M20.2124051,32.0558883 C19.477306,31.6791675 18.8255557,31.2744365 18.2687479,30.8470457 C18.001781,31.1699492 17.7473477,31.5007208 17.4994946,31.838731 C17.9554064,32.2850051 18.5103342,32.7095635 19.1529975,33.110203 C19.4945398,32.7470152 19.8470489,32.3942132 20.2124051,32.0558883" id="Fill-13" fill="#55BFD0"></path>
            <path d="M73.6079102,31.2109375 L68.6757812,31.2109375 L67.8144531,34 L63.9692383,34 L69.4448242,19.0703125 L72.8286133,19.0703125 L78.3452148,34 L74.4794922,34 L73.6079102,31.2109375 Z M69.5371094,28.4321289 L72.746582,28.4321289 L71.1367188,23.2539062 L69.5371094,28.4321289 Z M83.1235352,20.1469727 L83.1235352,22.9052734 L84.9487305,22.9052734 L84.9487305,25.3046875 L83.1235352,25.3046875 L83.1235352,30.3803711 C83.1235352,30.7973654 83.1987297,31.0878898 83.3491211,31.2519531 C83.4995125,31.4160164 83.7968728,31.4980469 84.2412109,31.4980469 C84.5830095,31.4980469 84.870116,31.4775393 85.1025391,31.4365234 L85.1025391,33.9077148 C84.4804656,34.105958 83.8310581,34.2050781 83.1542969,34.2050781 C81.9648378,34.2050781 81.0864286,33.9248075 80.519043,33.3642578 C79.9516573,32.8037081 79.6679688,31.9526424 79.6679688,30.8110352 L79.6679688,25.3046875 L78.2529297,25.3046875 L78.2529297,22.9052734 L79.6679688,22.9052734 L79.6679688,20.1469727 L83.1235352,20.1469727 Z M89.5732422,22.9052734 L89.6860352,24.2075195 C90.4721719,23.2026317 91.5283137,22.7001953 92.8544922,22.7001953 C94.2558664,22.7001953 95.2026343,23.2573186 95.6948242,24.371582 C96.4467811,23.2573186 97.5336843,22.7001953 98.9555664,22.7001953 C101.204601,22.7001953 102.359863,24.0605333 102.421387,26.78125 L102.421387,34 L98.9555664,34 L98.9555664,26.996582 C98.9555664,26.4291964 98.8598642,26.0156263 98.668457,25.7558594 C98.4770498,25.4960925 98.1284205,25.3662109 97.6225586,25.3662109 C96.9389614,25.3662109 96.4296892,25.6704071 96.0947266,26.2788086 L96.1049805,26.4223633 L96.1049805,34 L92.6391602,34 L92.6391602,27.0170898 C92.6391602,26.4360323 92.5468759,26.0156263 92.3623047,25.7558594 C92.1777335,25.4960925 91.8256862,25.3662109 91.3061523,25.3662109 C90.6430631,25.3662109 90.1372088,25.6704071 89.7885742,26.2788086 L89.7885742,34 L86.3330078,34 L86.3330078,22.9052734 L89.5732422,22.9052734 Z M103.959473,28.3500977 C103.959473,27.2426702 104.174803,26.2565961 104.605469,25.3918457 C105.036135,24.5270953 105.654781,23.862307 106.461426,23.3974609 C107.26807,22.9326149 108.214838,22.7001953 109.301758,22.7001953 C110.962899,22.7001953 112.271968,23.2145945 113.229004,24.2434082 C114.18604,25.2722219 114.664551,26.6718661 114.664551,28.4423828 L114.664551,28.5654297 C114.664551,30.2949305 114.184331,31.6672313 113.223877,32.682373 C112.263423,33.6975148 110.962899,34.2050781 109.322266,34.2050781 C107.743156,34.2050781 106.475102,33.7316942 105.518066,32.7849121 C104.56103,31.83813 104.044922,30.5546956 103.969727,28.9345703 L103.959473,28.3500977 Z M107.415039,28.5654297 C107.415039,29.5908254 107.575682,30.342771 107.896973,30.8212891 C108.218263,31.2998071 108.693356,31.5390625 109.322266,31.5390625 C110.552741,31.5390625 111.18164,30.5922946 111.208984,28.6987305 L111.208984,28.3500977 C111.208984,26.3608299 110.573249,25.3662109 109.301758,25.3662109 C108.146479,25.3662109 107.520997,26.2241125 107.425293,27.9399414 L107.415039,28.5654297 Z M121.996094,30.8828125 C121.996094,30.5888657 121.842287,30.3530282 121.534668,30.175293 C121.227049,29.9975577 120.642582,29.8129892 119.78125,29.621582 C118.919918,29.4301748 118.208987,29.1789566 117.648438,28.8679199 C117.087888,28.5568832 116.660646,28.1792014 116.366699,27.7348633 C116.072752,27.2905251 115.925781,26.7812529 115.925781,26.2070312 C115.925781,25.1884715 116.346187,24.3493685 117.187012,23.6896973 C118.027836,23.030026 119.128411,22.7001953 120.48877,22.7001953 C121.951667,22.7001953 123.127437,23.031735 124.016113,23.6948242 C124.90479,24.3579135 125.349121,25.2294868 125.349121,26.3095703 L121.883301,26.3095703 C121.883301,25.420894 121.415044,24.9765625 120.478516,24.9765625 C120.116209,24.9765625 119.812013,25.0773916 119.565918,25.2790527 C119.319823,25.4807139 119.196777,25.7319321 119.196777,26.0327148 C119.196777,26.3403336 119.347166,26.5898428 119.647949,26.78125 C119.948732,26.9726572 120.428952,27.1298822 121.088623,27.2529297 C121.748294,27.3759772 122.327634,27.5229484 122.82666,27.6938477 C124.494637,28.2680693 125.328613,29.2968676 125.328613,30.7802734 C125.328613,31.7919972 124.879155,32.6157195 123.980225,33.2514648 C123.081294,33.8872102 121.917488,34.2050781 120.48877,34.2050781 C119.538569,34.2050781 118.690922,34.0341814 117.945801,33.6923828 C117.20068,33.3505842 116.619631,32.8857451 116.202637,32.2978516 C115.785642,31.709958 115.577148,31.0913118 115.577148,30.4418945 L118.807129,30.4418945 C118.820801,30.9545924 118.991698,31.3288562 119.319824,31.5646973 C119.647951,31.8005383 120.068357,31.918457 120.581055,31.918457 C121.052737,31.918457 121.406493,31.8227549 121.642334,31.6313477 C121.878175,31.4399404 121.996094,31.1904312 121.996094,30.8828125 Z M137.243652,28.534668 C137.243652,30.2573328 136.855717,31.6330515 136.079834,32.6618652 C135.303951,33.690679 134.256354,34.2050781 132.937012,34.2050781 C131.918452,34.2050781 131.081058,33.8325233 130.424805,33.0874023 L130.424805,38.265625 L126.969238,38.265625 L126.969238,22.9052734 L130.199219,22.9052734 L130.301758,23.9306641 C130.964847,23.1103475 131.83642,22.7001953 132.916504,22.7001953 C134.283698,22.7001953 135.346676,23.2043407 136.105469,24.2126465 C136.864262,25.2209523 137.243652,26.6069248 137.243652,28.3706055 L137.243652,28.534668 Z M133.788086,28.3193359 C133.788086,26.3505761 133.213873,25.3662109 132.06543,25.3662109 C131.245113,25.3662109 130.698244,25.6601533 130.424805,26.2480469 L130.424805,30.6162109 C130.725587,31.2314484 131.279293,31.5390625 132.085938,31.5390625 C133.186529,31.5390625 133.753906,30.5888767 133.788086,28.6884766 L133.788086,28.3193359 Z M142.14502,24.0947266 C142.883304,23.1650344 143.826654,22.7001953 144.975098,22.7001953 C146.198737,22.7001953 147.121579,23.0624964 147.743652,23.7871094 C148.365726,24.5117224 148.683594,25.5815359 148.697266,26.996582 L148.697266,34 L145.231445,34 L145.231445,27.0786133 C145.231445,26.4907197 145.111818,26.058351 144.872559,25.7814941 C144.6333,25.5046373 144.226565,25.3662109 143.652344,25.3662109 C142.941403,25.3662109 142.438966,25.5917946 142.14502,26.0429688 L142.14502,34 L138.689453,34 L138.689453,18.25 L142.14502,18.25 L142.14502,24.0947266 Z M155.987793,34.2050781 C154.285636,34.2050781 152.908208,33.6975148 151.855469,32.682373 C150.802729,31.6672313 150.276367,30.3461995 150.276367,28.7192383 L150.276367,28.4321289 C150.276367,27.2973576 150.48657,26.2959028 150.906982,25.4277344 C151.327395,24.559566 151.940914,23.8879418 152.747559,23.4128418 C153.554203,22.9377418 154.511225,22.7001953 155.618652,22.7001953 C157.177254,22.7001953 158.40771,23.1838331 159.310059,24.151123 C160.212407,25.118413 160.663574,26.4667882 160.663574,28.1962891 L160.663574,29.5395508 L153.793457,29.5395508 C153.916505,30.1616242 154.186521,30.6503888 154.603516,31.0058594 C155.02051,31.3613299 155.560544,31.5390625 156.223633,31.5390625 C157.317388,31.5390625 158.171872,31.1562538 158.787109,30.390625 L160.366211,32.2568359 C159.935545,32.8515655 159.325443,33.3249494 158.535889,33.677002 C157.746334,34.0290545 156.896977,34.2050781 155.987793,34.2050781 Z M155.598145,25.3662109 C154.586421,25.3662109 153.984864,26.0361261 153.793457,27.3759766 L157.279785,27.3759766 L157.279785,27.109375 C157.293457,26.5556613 157.153322,26.1267105 156.859375,25.8225098 C156.565428,25.518309 156.145022,25.3662109 155.598145,25.3662109 Z M168.76416,26.0327148 L167.625977,25.9506836 C166.539057,25.9506836 165.841798,26.2924771 165.53418,26.9760742 L165.53418,34 L162.078613,34 L162.078613,22.9052734 L165.318848,22.9052734 L165.431641,24.3305664 C166.012698,23.2436469 166.822749,22.7001953 167.861816,22.7001953 C168.230959,22.7001953 168.552245,22.7412105 168.825684,22.8232422 L168.76416,26.0327148 Z M175.183105,34.2050781 C173.480949,34.2050781 172.103521,33.6975148 171.050781,32.682373 C169.998042,31.6672313 169.47168,30.3461995 169.47168,28.7192383 L169.47168,28.4321289 C169.47168,27.2973576 169.681883,26.2959028 170.102295,25.4277344 C170.522707,24.559566 171.136226,23.8879418 171.942871,23.4128418 C172.749516,22.9377418 173.706537,22.7001953 174.813965,22.7001953 C176.372566,22.7001953 177.603023,23.1838331 178.505371,24.151123 C179.407719,25.118413 179.858887,26.4667882 179.858887,28.1962891 L179.858887,29.5395508 L172.98877,29.5395508 C173.111817,30.1616242 173.381834,30.6503888 173.798828,31.0058594 C174.215822,31.3613299 174.755856,31.5390625 175.418945,31.5390625 C176.512701,31.5390625 177.367184,31.1562538 177.982422,30.390625 L179.561523,32.2568359 C179.130857,32.8515655 178.520756,33.3249494 177.731201,33.677002 C176.941646,34.0290545 176.09229,34.2050781 175.183105,34.2050781 Z M174.793457,25.3662109 C173.781733,25.3662109 173.180177,26.0361261 172.98877,27.3759766 L176.475098,27.3759766 L176.475098,27.109375 C176.48877,26.5556613 176.348634,26.1267105 176.054688,25.8225098 C175.760741,25.518309 175.340335,25.3662109 174.793457,25.3662109 Z M69.8549805,43.0703125 L73.1875,53.4575195 L76.5097656,43.0703125 L81.2470703,43.0703125 L81.2470703,58 L77.6376953,58 L77.6376953,54.5136719 L77.9863281,47.3769531 L74.3769531,58 L71.9980469,58 L68.378418,47.3666992 L68.7270508,54.5136719 L68.7270508,58 L65.1279297,58 L65.1279297,43.0703125 L69.8549805,43.0703125 Z M82.9389648,52.3500977 C82.9389648,51.2426702 83.1542947,50.2565961 83.5849609,49.3918457 C84.0156272,48.5270953 84.6342733,47.862307 85.440918,47.3974609 C86.2475626,46.9326149 87.1943305,46.7001953 88.28125,46.7001953 C89.9423911,46.7001953 91.2514601,47.2145945 92.2084961,48.2434082 C93.1655321,49.2722219 93.644043,50.6718661 93.644043,52.4423828 L93.644043,52.5654297 C93.644043,54.2949305 93.1638232,55.6672313 92.2033691,56.682373 C91.2429151,57.6975148 89.942391,58.2050781 88.3017578,58.2050781 C86.7226484,58.2050781 85.4545946,57.7316942 84.4975586,56.7849121 C83.5405226,55.83813 83.0244144,54.5546956 82.9492188,52.9345703 L82.9389648,52.3500977 Z M86.3945312,52.5654297 C86.3945312,53.5908254 86.5551742,54.342771 86.8764648,54.8212891 C87.1977555,55.2998071 87.6728484,55.5390625 88.3017578,55.5390625 C89.5322327,55.5390625 90.1611327,54.5922946 90.1884766,52.6987305 L90.1884766,52.3500977 C90.1884766,50.3608299 89.5527407,49.3662109 88.28125,49.3662109 C87.1259708,49.3662109 86.5004888,50.2241125 86.4047852,51.9399414 L86.3945312,52.5654297 Z M98.340332,46.9052734 L98.453125,48.2075195 C99.2187538,47.2026317 100.274896,46.7001953 101.621582,46.7001953 C102.776861,46.7001953 103.63989,47.0454067 104.210693,47.7358398 C104.781497,48.426273 105.077148,49.4653251 105.097656,50.8530273 L105.097656,58 L101.631836,58 L101.631836,50.996582 C101.631836,50.4360324 101.519044,50.0241712 101.293457,49.7609863 C101.06787,49.4978014 100.657718,49.3662109 100.062988,49.3662109 C99.3862271,49.3662109 98.8837907,49.6328098 98.5556641,50.1660156 L98.5556641,58 L95.1000977,58 L95.1000977,46.9052734 L98.340332,46.9052734 Z M110.655273,58 L107.189453,58 L107.189453,46.9052734 L110.655273,46.9052734 L110.655273,58 Z M106.984375,44.0444336 C106.984375,43.5522436 107.162108,43.1489274 107.517578,42.8344727 C107.873049,42.520018 108.33447,42.362793 108.901855,42.362793 C109.469241,42.362793 109.930662,42.520018 110.286133,42.8344727 C110.641603,43.1489274 110.819336,43.5522436 110.819336,44.0444336 C110.819336,44.5366236 110.641603,44.9399398 110.286133,45.2543945 C109.930662,45.5688492 109.469241,45.7260742 108.901855,45.7260742 C108.33447,45.7260742 107.873049,45.5688492 107.517578,45.2543945 C107.162108,44.9399398 106.984375,44.5366236 106.984375,44.0444336 Z M116.807617,44.1469727 L116.807617,46.9052734 L118.632812,46.9052734 L118.632812,49.3046875 L116.807617,49.3046875 L116.807617,54.3803711 C116.807617,54.7973654 116.882812,55.0878898 117.033203,55.2519531 C117.183595,55.4160164 117.480955,55.4980469 117.925293,55.4980469 C118.267092,55.4980469 118.554198,55.4775393 118.786621,55.4365234 L118.786621,57.9077148 C118.164548,58.105958 117.51514,58.2050781 116.838379,58.2050781 C115.64892,58.2050781 114.770511,57.9248075 114.203125,57.3642578 C113.635739,56.8037081 113.352051,55.9526424 113.352051,54.8110352 L113.352051,49.3046875 L111.937012,49.3046875 L111.937012,46.9052734 L113.352051,46.9052734 L113.352051,44.1469727 L116.807617,44.1469727 Z M119.248047,52.3500977 C119.248047,51.2426702 119.463377,50.2565961 119.894043,49.3918457 C120.324709,48.5270953 120.943355,47.862307 121.75,47.3974609 C122.556645,46.9326149 123.503413,46.7001953 124.590332,46.7001953 C126.251473,46.7001953 127.560542,47.2145945 128.517578,48.2434082 C129.474614,49.2722219 129.953125,50.6718661 129.953125,52.4423828 L129.953125,52.5654297 C129.953125,54.2949305 129.472905,55.6672313 128.512451,56.682373 C127.551997,57.6975148 126.251473,58.2050781 124.61084,58.2050781 C123.03173,58.2050781 121.763677,57.7316942 120.806641,56.7849121 C119.849605,55.83813 119.333496,54.5546956 119.258301,52.9345703 L119.248047,52.3500977 Z M122.703613,52.5654297 C122.703613,53.5908254 122.864256,54.342771 123.185547,54.8212891 C123.506838,55.2998071 123.98193,55.5390625 124.61084,55.5390625 C125.841315,55.5390625 126.470215,54.5922946 126.497559,52.6987305 L126.497559,52.3500977 C126.497559,50.3608299 125.861823,49.3662109 124.590332,49.3662109 C123.435053,49.3662109 122.809571,50.2241125 122.713867,51.9399414 L122.703613,52.5654297 Z M138.187012,50.0327148 L137.048828,49.9506836 C135.961909,49.9506836 135.26465,50.2924771 134.957031,50.9760742 L134.957031,58 L131.501465,58 L131.501465,46.9052734 L134.741699,46.9052734 L134.854492,48.3305664 C135.43555,47.2436469 136.2456,46.7001953 137.284668,46.7001953 C137.65381,46.7001953 137.975096,46.7412105 138.248535,46.8232422 L138.187012,50.0327148 Z M143.078125,58 L139.612305,58 L139.612305,46.9052734 L143.078125,46.9052734 L143.078125,58 Z M139.407227,44.0444336 C139.407227,43.5522436 139.584959,43.1489274 139.94043,42.8344727 C140.2959,42.520018 140.757321,42.362793 141.324707,42.362793 C141.892093,42.362793 142.353514,42.520018 142.708984,42.8344727 C143.064455,43.1489274 143.242188,43.5522436 143.242188,44.0444336 C143.242188,44.5366236 143.064455,44.9399398 142.708984,45.2543945 C142.353514,45.5688492 141.892093,45.7260742 141.324707,45.7260742 C140.757321,45.7260742 140.2959,45.5688492 139.94043,45.2543945 C139.584959,44.9399398 139.407227,44.5366236 139.407227,44.0444336 Z M148.379395,46.9052734 L148.492188,48.2075195 C149.257816,47.2026317 150.313958,46.7001953 151.660645,46.7001953 C152.815924,46.7001953 153.678952,47.0454067 154.249756,47.7358398 C154.820559,48.426273 155.116211,49.4653251 155.136719,50.8530273 L155.136719,58 L151.670898,58 L151.670898,50.996582 C151.670898,50.4360324 151.558107,50.0241712 151.33252,49.7609863 C151.106932,49.4978014 150.69678,49.3662109 150.102051,49.3662109 C149.42529,49.3662109 148.922853,49.6328098 148.594727,50.1660156 L148.594727,58 L145.13916,58 L145.13916,46.9052734 L148.379395,46.9052734 Z M156.644043,52.3706055 C156.644043,51.2495061 156.828611,50.2583051 157.197754,49.3969727 C157.566896,48.5356402 158.096676,47.870852 158.787109,47.4025879 C159.477543,46.9343238 160.280757,46.7001953 161.196777,46.7001953 C162.352057,46.7001953 163.254391,47.0898399 163.903809,47.8691406 L164.026855,46.9052734 L167.164551,46.9052734 L167.164551,57.5795898 C167.164551,58.5571338 166.937258,59.4064905 166.482666,60.1276855 C166.028074,60.8488806 165.370121,61.402586 164.508789,61.7888184 C163.647457,62.1750508 162.64942,62.3681641 161.514648,62.3681641 C160.701168,62.3681641 159.913334,62.214357 159.151123,61.9067383 C158.388912,61.5991196 157.806154,61.1992212 157.402832,60.7070312 L158.848633,58.6767578 C159.491214,59.4355507 160.338862,59.8149414 161.391602,59.8149414 C162.922859,59.8149414 163.688477,59.0288165 163.688477,57.456543 L163.688477,57.1079102 C163.025387,57.8393591 162.187993,58.2050781 161.17627,58.2050781 C159.822747,58.2050781 158.729008,57.687261 157.89502,56.6516113 C157.061031,55.6159616 156.644043,54.2299892 156.644043,52.4936523 L156.644043,52.3706055 Z M160.109863,52.5859375 C160.109863,53.4951217 160.28076,54.214597 160.622559,54.7443848 C160.964357,55.2741726 161.442868,55.5390625 162.058105,55.5390625 C162.803226,55.5390625 163.346678,55.2895533 163.688477,54.7905273 L163.688477,50.125 C163.353514,49.6191381 162.816898,49.3662109 162.078613,49.3662109 C161.463376,49.3662109 160.981447,49.6413547 160.632812,50.1916504 C160.284178,50.7419461 160.109863,51.5400338 160.109863,52.5859375 Z M182.217285,54.0317383 C182.217285,53.5053685 182.031008,53.0952163 181.658447,52.8012695 C181.285887,52.5073227 180.631352,52.2031266 179.694824,51.8886719 C178.758296,51.5742172 177.992679,51.270021 177.397949,50.9760742 C175.463369,50.0258742 174.496094,48.7202231 174.496094,47.059082 C174.496094,46.2319295 174.737058,45.5022004 175.218994,44.869873 C175.70093,44.2375457 176.382808,43.7453631 177.264648,43.3933105 C178.146489,43.041258 179.13769,42.8652344 180.238281,42.8652344 C181.311529,42.8652344 182.273677,43.0566387 183.124756,43.4394531 C183.975834,43.8222675 184.637205,44.3674281 185.108887,45.0749512 C185.580569,45.7824742 185.816406,46.5908158 185.816406,47.5 L182.227539,47.5 C182.227539,46.8915985 182.041262,46.4199235 181.668701,46.0849609 C181.296141,45.7499983 180.791995,45.5825195 180.15625,45.5825195 C179.513669,45.5825195 179.006105,45.7243638 178.633545,46.0080566 C178.260984,46.2917495 178.074707,46.6523416 178.074707,47.0898438 C178.074707,47.4726582 178.279783,47.8195785 178.689941,48.1306152 C179.1001,48.4416519 179.821284,48.7629378 180.853516,49.0944824 C181.885747,49.426027 182.733395,49.7832012 183.396484,50.1660156 C185.009774,51.0957078 185.816406,52.3774332 185.816406,54.0112305 C185.816406,55.3169011 185.324224,56.3422814 184.339844,57.0874023 C183.355464,57.8325233 182.00538,58.2050781 180.289551,58.2050781 C179.079584,58.2050781 177.984136,57.9880393 177.003174,57.5539551 C176.022212,57.1198709 175.283938,56.5251503 174.78833,55.7697754 C174.292722,55.0144005 174.044922,54.1445362 174.044922,53.1601562 L177.654297,53.1601562 C177.654297,53.9599649 177.861082,54.5495586 178.274658,54.9289551 C178.688234,55.3083515 179.359859,55.4980469 180.289551,55.4980469 C180.88428,55.4980469 181.354246,55.3698743 181.699463,55.1135254 C182.044679,54.8571765 182.217285,54.4965844 182.217285,54.0317383 Z M192.871094,58.2050781 C191.168937,58.2050781 189.791509,57.6975148 188.73877,56.682373 C187.68603,55.6672313 187.159668,54.3461995 187.159668,52.7192383 L187.159668,52.4321289 C187.159668,51.2973576 187.369871,50.2959028 187.790283,49.4277344 C188.210695,48.559566 188.824215,47.8879418 189.630859,47.4128418 C190.437504,46.9377418 191.394526,46.7001953 192.501953,46.7001953 C194.060555,46.7001953 195.291011,47.1838331 196.193359,48.151123 C197.095708,49.118413 197.546875,50.4667882 197.546875,52.1962891 L197.546875,53.5395508 L190.676758,53.5395508 C190.799805,54.1616242 191.069822,54.6503888 191.486816,55.0058594 C191.903811,55.3613299 192.443844,55.5390625 193.106934,55.5390625 C194.200689,55.5390625 195.055173,55.1562538 195.67041,54.390625 L197.249512,56.2568359 C196.818846,56.8515655 196.208744,57.3249494 195.419189,57.677002 C194.629635,58.0290545 193.780278,58.2050781 192.871094,58.2050781 Z M192.481445,49.3662109 C191.469722,49.3662109 190.868165,50.0361261 190.676758,51.3759766 L194.163086,51.3759766 L194.163086,51.109375 C194.176758,50.5556613 194.036623,50.1267105 193.742676,49.8225098 C193.448729,49.518309 193.028323,49.3662109 192.481445,49.3662109 Z M205.647461,50.0327148 L204.509277,49.9506836 C203.422358,49.9506836 202.725099,50.2924771 202.41748,50.9760742 L202.41748,58 L198.961914,58 L198.961914,46.9052734 L202.202148,46.9052734 L202.314941,48.3305664 C202.895999,47.2436469 203.706049,46.7001953 204.745117,46.7001953 C205.11426,46.7001953 205.435546,46.7412105 205.708984,46.8232422 L205.647461,50.0327148 Z M211.502441,53.8881836 L213.255859,46.9052734 L216.895996,46.9052734 L213.276367,58 L209.749023,58 L206.129395,46.9052734 L209.779785,46.9052734 L211.502441,53.8881836 Z M221.571777,58 L218.105957,58 L218.105957,46.9052734 L221.571777,46.9052734 L221.571777,58 Z M217.900879,44.0444336 C217.900879,43.5522436 218.078612,43.1489274 218.434082,42.8344727 C218.789553,42.520018 219.250974,42.362793 219.818359,42.362793 C220.385745,42.362793 220.847166,42.520018 221.202637,42.8344727 C221.558107,43.1489274 221.73584,43.5522436 221.73584,44.0444336 C221.73584,44.5366236 221.558107,44.9399398 221.202637,45.2543945 C220.847166,45.5688492 220.385745,45.7260742 219.818359,45.7260742 C219.250974,45.7260742 218.789553,45.5688492 218.434082,45.2543945 C218.078612,44.9399398 217.900879,44.5366236 217.900879,44.0444336 Z M228.390625,55.5390625 C228.875979,55.5390625 229.251952,55.407472 229.518555,55.1442871 C229.785158,54.8811022 229.915039,54.5136742 229.908203,54.0419922 L233.148438,54.0419922 C233.148438,55.2587951 232.712651,56.256832 231.841064,57.0361328 C230.969478,57.8154336 229.846687,58.2050781 228.472656,58.2050781 C226.859367,58.2050781 225.587895,57.6992238 224.658203,56.6875 C223.728511,55.6757762 223.263672,54.274423 223.263672,52.4833984 L223.263672,52.3398438 C223.263672,51.2187444 223.470457,50.2292523 223.884033,49.3713379 C224.297609,48.5134234 224.894039,47.8537621 225.67334,47.392334 C226.452641,46.9309059 227.375483,46.7001953 228.441895,46.7001953 C229.884285,46.7001953 231.029293,47.1000937 231.876953,47.8999023 C232.724614,48.699711 233.148438,49.7831963 233.148438,51.1503906 L229.908203,51.1503906 C229.908203,50.576169 229.768068,50.1352554 229.487793,49.8276367 C229.207518,49.520018 228.831545,49.3662109 228.359863,49.3662109 C227.464351,49.3662109 226.941407,49.937006 226.791016,51.0786133 C226.743164,51.4409198 226.719238,51.9399382 226.719238,52.5756836 C226.719238,53.689947 226.852538,54.4624002 227.119141,54.8930664 C227.385744,55.3237326 227.809567,55.5390625 228.390625,55.5390625 Z M239.977539,58.2050781 C238.275382,58.2050781 236.897954,57.6975148 235.845215,56.682373 C234.792475,55.6672313 234.266113,54.3461995 234.266113,52.7192383 L234.266113,52.4321289 C234.266113,51.2973576 234.476316,50.2959028 234.896729,49.4277344 C235.317141,48.559566 235.93066,47.8879418 236.737305,47.4128418 C237.543949,46.9377418 238.500971,46.7001953 239.608398,46.7001953 C241.167,46.7001953 242.397456,47.1838331 243.299805,48.151123 C244.202153,49.118413 244.65332,50.4667882 244.65332,52.1962891 L244.65332,53.5395508 L237.783203,53.5395508 C237.906251,54.1616242 238.176267,54.6503888 238.593262,55.0058594 C239.010256,55.3613299 239.55029,55.5390625 240.213379,55.5390625 C241.307134,55.5390625 242.161618,55.1562538 242.776855,54.390625 L244.355957,56.2568359 C243.925291,56.8515655 243.315189,57.3249494 242.525635,57.677002 C241.73608,58.0290545 240.886723,58.2050781 239.977539,58.2050781 Z M239.587891,49.3662109 C238.576167,49.3662109 237.97461,50.0361261 237.783203,51.3759766 L241.269531,51.3759766 L241.269531,51.109375 C241.283203,50.5556613 241.143068,50.1267105 240.849121,49.8225098 C240.555174,49.518309 240.134768,49.3662109 239.587891,49.3662109 Z" id="Atmosphere-Monitorin" fill="#55BFD0"></path>
        </g>
    </g>
</svg>